<?xml version="1.0" standalone="no"?>
<!DOCTYPE svg PUBLIC "-//W3C//DTD SVG 20010904//EN"
 "http://www.w3.org/TR/2001/REC-SVG-20010904/DTD/svg10.dtd">
<svg version="1.0" xmlns="http://www.w3.org/2000/svg"
 width="1256.000000pt" height="1254.000000pt" viewBox="0 0 1256.000000 1254.000000"
 preserveAspectRatio="xMidYMid meet">
<metadata>
Created by potrace 1.16, written by Peter Selinger 2001-2019
</metadata>
<g transform="translate(0.000000,1254.000000) scale(0.100000,-0.100000)"
fill="#000000" stroke="none">
<path d="M0 6270 l0 -6270 6280 0 6280 0 0 6270 0 6270 -4365 0 c-3919 0
-4366 -2 -4372 -15 -3 -9 2 -35 11 -58 18 -47 21 -108 7 -123 -6 -5 -4 -24 5
-49 8 -22 14 -53 15 -70 1 -50 -13 -179 -21 -190 -4 -5 -11 -39 -14 -75 -4
-35 -12 -72 -16 -81 -5 -9 -11 -32 -12 -50 -3 -37 -32 -104 -54 -127 -17 -16
-19 -42 -3 -42 5 0 7 -5 4 -10 -4 -6 -11 -8 -16 -5 -5 4 -9 -6 -9 -22 0 -15
-11 -46 -25 -68 -14 -22 -39 -68 -56 -103 -17 -35 -38 -66 -45 -69 -8 -3 -14
-12 -14 -20 0 -8 -4 -12 -9 -9 -9 6 -71 -73 -84 -106 -3 -10 -11 -18 -17 -18
-6 0 -30 -19 -53 -43 -23 -24 -50 -46 -59 -50 -10 -3 -18 -13 -18 -22 0 -8 -5
-15 -10 -15 -6 0 -21 -10 -34 -22 -34 -33 -62 -48 -91 -48 -14 0 -28 -6 -31
-14 -3 -8 -21 -17 -40 -20 -20 -4 -34 -13 -34 -21 0 -8 -12 -18 -27 -21 -16
-4 -53 -13 -83 -20 -30 -8 -64 -14 -76 -14 -12 0 -24 -7 -28 -15 -5 -13 -27
-15 -135 -14 -70 1 -133 -1 -139 -5 -14 -9 -143 4 -137 14 5 8 -93 30 -133 30
-13 0 -37 11 -52 24 -16 13 -47 26 -69 30 -23 3 -41 11 -41 16 0 6 -11 10 -25
10 -13 0 -40 14 -59 30 -19 17 -79 53 -133 80 -64 32 -104 59 -113 75 -7 13
-20 27 -29 30 -9 3 -36 23 -61 45 -25 22 -52 46 -60 53 -26 23 -173 181 -208
223 -44 54 -82 112 -82 128 0 8 -7 19 -15 26 -17 14 -45 67 -45 86 0 7 -9 18
-20 24 -11 6 -20 15 -20 21 0 6 -16 44 -35 85 -19 40 -35 80 -35 88 0 8 -5 16
-11 18 -6 2 -13 25 -16 51 -3 26 -10 50 -14 53 -5 3 -9 13 -9 23 0 10 -7 32
-16 49 -18 37 -47 214 -38 236 4 9 0 18 -9 22 -13 5 -13 9 -1 32 28 55 57 52
-556 52 l-570 0 0 -6270z m3962 2205 c64 -15 192 -54 238 -73 14 -6 115 -45
225 -87 110 -42 207 -81 215 -88 52 -41 74 -135 44 -188 -11 -19 -27 -42 -37
-51 -25 -22 -111 -32 -169 -19 -55 13 -83 6 -71 -18 4 -9 8 -40 8 -68 0 -44
-4 -57 -28 -80 -26 -27 -32 -28 -115 -27 -81 1 -108 7 -189 41 -17 7 -36 13
-42 13 -6 0 -19 4 -29 10 -9 5 -93 37 -187 71 -317 113 -315 113 -436 25 -118
-87 -138 -96 -206 -96 -88 0 -171 53 -188 118 -6 25 9 84 30 114 22 33 329
259 395 291 36 17 86 45 112 60 100 62 291 85 430 52z m853 -577 c18 -8 25
-19 25 -39 0 -23 -19 -48 -93 -121 -51 -51 -116 -111 -143 -134 l-49 -41 52
-26 c92 -47 287 -117 326 -117 15 0 17 6 11 35 -6 35 -6 35 29 35 25 0 49 10
84 38 106 83 215 152 240 152 39 0 73 -21 73 -46 0 -17 -21 -39 -82 -86 -46
-34 -101 -80 -124 -102 -23 -21 -56 -44 -75 -50 l-34 -11 3 -63 c5 -91 -7
-102 -112 -102 -72 0 -98 6 -236 54 -257 89 -289 103 -355 157 -75 60 -88 93
-68 161 12 42 24 55 121 130 59 45 125 97 147 116 74 63 193 91 260 60z m1012
-374 c56 -42 53 -105 -4 -118 -16 -4 -39 -20 -53 -35 -14 -16 -58 -54 -98 -86
-72 -56 -92 -84 -92 -129 0 -33 34 -60 131 -104 48 -22 90 -45 94 -52 12 -19
-16 -70 -42 -76 -32 -9 -65 -1 -180 42 -78 29 -108 45 -145 82 -42 41 -48 52
-48 89 0 37 5 45 43 76 23 19 53 40 67 47 32 17 154 110 158 121 2 4 -8 11
-23 15 -36 9 -79 67 -71 97 8 34 54 77 82 77 12 0 25 4 29 9 7 13 113 -25 152
-55z m315 -140 c77 -39 84 -54 42 -103 -19 -23 -34 -31 -57 -31 -37 0 -111 21
-155 44 -36 18 -50 68 -28 101 13 19 22 21 80 19 46 -2 80 -11 118 -30z
m-2118 -115 c77 -22 183 -59 235 -81 266 -112 466 -203 488 -222 23 -21 23
-21 7 -63 -16 -41 -19 -43 -57 -43 -23 0 -100 22 -187 55 -212 78 -440 155
-461 155 -10 0 -26 11 -35 25 -19 29 -61 33 -79 8 -11 -15 -15 -15 -29 -4 -14
12 -18 11 -29 -3 -19 -25 -106 -40 -126 -22 -16 14 -81 11 -81 -4 0 -16 82
-60 245 -130 522 -225 553 -240 538 -264 -4 -6 -8 -17 -8 -25 0 -29 -32 -37
-77 -20 -186 72 -556 208 -662 244 -91 31 -134 41 -146 35 -11 -6 -24 -4 -38
6 -28 19 -43 11 -190 -99 -102 -78 -110 -86 -85 -89 43 -5 23 -23 -22 -22 -49
2 -224 72 -239 96 -14 24 3 40 47 43 28 3 70 32 220 157 235 195 279 229 347
264 124 65 215 65 424 3z m2401 -97 c-23 -20 -80 -72 -127 -114 -89 -81 -104
-109 -86 -159 24 -65 82 -97 431 -239 42 -18 77 -36 77 -41 0 -12 3 -13 -100
27 -51 19 -94 33 -96 31 -6 -6 207 -88 216 -82 4 2 43 -6 86 -19 66 -19 75
-25 59 -33 -29 -15 -87 -8 -98 12 -6 11 -16 15 -32 11 -13 -3 -83 16 -181 50
-410 142 -487 183 -500 266 -6 33 -1 39 74 116 44 45 86 82 94 82 8 0 23 9 34
21 20 22 74 54 74 44 0 -3 15 5 33 19 19 15 39 26 45 26 7 0 12 5 12 10 0 6 6
10 13 10 6 0 -6 -17 -28 -38z m-1530 -467 c11 -8 31 -24 45 -34 l25 -20 -62
-59 c-34 -33 -111 -102 -170 -153 -129 -112 -153 -136 -153 -154 0 -22 32 -39
195 -103 192 -76 226 -87 234 -75 3 5 42 33 85 63 43 29 144 106 223 171 79
66 153 119 164 119 26 0 24 -5 -13 -41 l-33 -31 32 23 c33 23 63 20 63 -5 0
-9 -24 -39 -54 -68 -170 -167 -283 -272 -317 -295 -21 -14 -39 -32 -39 -39 0
-7 -11 -21 -25 -30 -13 -9 -27 -24 -30 -35 -10 -30 -41 -42 -67 -25 -13 8
-113 55 -223 105 -110 49 -226 104 -257 121 -57 31 -58 32 -44 58 18 36 9 61
-11 33 -18 -27 -53 -28 -53 -1 0 21 34 45 50 35 6 -3 10 1 10 9 0 12 -7 14
-30 10 -27 -6 -30 -4 -30 19 0 32 25 54 43 38 11 -8 19 -5 38 15 13 15 78 74
144 132 66 57 127 112 135 120 23 24 -88 -56 -150 -108 -80 -67 -90 -73 -90
-63 0 8 239 215 302 261 37 26 38 26 63 7z m3843 -344 c24 -13 30 -40 10 -42
-7 0 -61 0 -120 1 -66 1 -121 -3 -143 -11 -27 -10 -38 -10 -47 -1 -17 17 6 37
67 56 57 18 198 16 233 -3z m123 -36 c73 -25 183 -90 201 -118 19 -29 28 -86
18 -111 -22 -58 -74 -35 -85 38 -6 39 -12 45 -77 87 -88 55 -140 98 -132 110
7 13 25 11 75 -6z m-2975 -55 c117 -49 134 -66 134 -135 0 -26 -6 -38 -27 -52
-38 -25 -189 -179 -221 -226 l-25 -38 35 -36 c20 -19 76 -56 124 -82 79 -41
89 -50 92 -76 4 -36 -58 -115 -90 -115 -10 0 -70 25 -133 55 l-113 55 -12 52
c-8 32 -25 65 -46 88 -44 48 -44 74 -1 95 41 19 203 181 186 187 -6 2 11 23
40 47 28 24 51 47 51 51 0 5 -20 18 -44 29 -55 24 -65 50 -36 91 25 36 24 36
86 10z m2213 -45 c11 -25 29 -58 41 -72 11 -14 18 -29 15 -33 -3 -4 46 -36
108 -70 141 -78 145 -81 124 -113 -11 -17 -29 -27 -55 -32 -33 -5 -46 -2 -83
23 -24 16 -64 42 -89 58 -58 38 -61 43 -44 76 16 31 18 29 -46 32 -21 1 -25 5
-22 27 3 36 -14 79 -33 79 -25 0 -19 49 8 60 43 17 55 11 76 -35z m-1802 -130
c121 -53 152 -70 153 -87 0 -19 -54 -68 -76 -68 -8 0 -56 18 -106 41 -51 22
-103 44 -115 49 -40 17 -24 57 29 77 46 16 51 16 115 -12z m463 -209 c10 -13
9 -19 -8 -33 -11 -10 -62 -65 -113 -123 -52 -58 -104 -116 -116 -130 -27 -29
-27 -32 -9 -85 15 -43 46 -64 261 -175 132 -68 185 -99 185 -110 0 -4 -9 -19
-21 -34 -19 -24 -26 -26 -68 -21 -44 6 -70 13 -116 31 -32 12 -55 16 -140 21
-59 3 -85 9 -100 23 -11 10 -39 23 -62 29 -51 14 -73 34 -73 68 0 14 -18 54
-39 87 -37 60 -38 63 -26 100 17 48 39 73 81 86 23 8 39 22 50 46 10 20 29 43
43 52 70 44 204 157 212 179 7 19 12 22 27 14 10 -5 24 -17 32 -25z m2207 -31
c17 -23 11 -104 -10 -117 -21 -13 -81 -9 -137 11 -36 13 -59 16 -67 10 -26
-23 -81 90 -55 115 4 4 62 6 130 4 110 -3 125 -5 139 -23z m211 -958 c2 -9 10
-17 17 -17 8 0 18 -8 24 -17 8 -15 12 -16 23 -4 10 11 10 14 1 18 -30 11 -10
20 22 10 29 -8 34 -14 29 -32 -3 -13 1 -28 10 -38 14 -14 14 -16 0 -21 -28
-11 -50 -6 -71 14 -12 11 -23 15 -25 9 -2 -5 -18 -12 -36 -14 -26 -3 -38 1
-54 20 -24 28 -40 33 -32 10 12 -30 -20 -9 -56 38 -13 18 -12 18 17 14 24 -4
32 -1 36 13 6 25 90 22 95 -3z m-505 -109 c9 -5 18 -16 18 -26 4 -63 11 -88
25 -97 38 -23 77 -69 86 -101 13 -48 -15 -126 -60 -166 -29 -24 -41 -29 -79
-26 -36 2 -49 8 -62 28 -9 14 -11 21 -3 16 8 -5 12 -1 12 13 0 11 -8 24 -17
30 -12 6 -16 20 -15 49 2 34 -2 44 -33 71 -25 21 -46 31 -69 31 -49 0 -76 27
-87 85 -14 77 -7 89 55 82 31 -3 67 0 90 8 22 8 43 12 47 9 4 -2 10 0 14 6 6
10 46 4 78 -12z"/>
</g>
</svg>
